# xmcd
#
# Track frame offsets: 
#        150
#        17236
#        35179
#        51846
#        67824
#        81303
#        97593
#        114178
#        128048
#        141213
#        157826
#        172215
#        190074
#        204923
#
# Disc length: 2911 seconds
#
# Revision: 0
# Processed by: cddbd v1.5.2PL0 Copyright (c) Steve Scherf et al.
# Submitted via: ExactAudioCopy v0.95a4
#
DISCID=b30b5d0e
DTITLE=Wouter Hamel - Pompadour
DYEAR=2014
DGENRE=Blues
TTITLE0=The Lights
TTITLE1=Pompadour
TTITLE2=Nothing Can Stay The Same
TTITLE3=Double Dutch
TTITLE4=New Disguise
TTITLE5=Hollywood
TTITLE6=Beautiful Misfits
TTITLE7=Traveling Alone
TTITLE8=Giant Move
TTITLE9=Bigger
TTITLE10=Live A Little
TTITLE11=Gretna Green
TTITLE12=Sunny Days
TTITLE13=Never Trust A Man
EXTD=
EXTT0=
EXTT1=
EXTT2=
EXTT3=
EXTT4=
EXTT5=
EXTT6=
EXTT7=
EXTT8=
EXTT9=
EXTT10=
EXTT11=
EXTT12=
EXTT13=
PLAYORDER=
